<mxfile host="app.diagrams.net" modified="2023-01-13T02:51:42.138Z" agent="5.0 (Macintosh; Intel Mac OS X 10_15_7) AppleWebKit/537.36 (KHTML, like Gecko) Chrome/108.0.0.0 Safari/537.36" version="20.8.3" etag="ksbvc77CZqfcobjAQjJn" type="github">
  <diagram id="S0Vz4maGBqI7voOBGT2Q" name="Morfologia de cheques">
    <mxGraphModel dx="794" dy="368" grid="1" gridSize="10" guides="1" tooltips="1" connect="1" arrows="1" fold="1" page="1" pageScale="1" pageWidth="850" pageHeight="1100" math="0" shadow="0">
      <root>
        <mxCell id="0" />
        <mxCell id="1" parent="0" />
      </root>
    </mxGraphModel>
  </diagram>
</mxfile>
